<svg width="20" height="25" viewBox="0 0 20 25" fill="none" xmlns="http://www.w3.org/2000/svg">
<path d="M18.7266 13.4083C16.895 8.64832 10.3733 8.39166 11.9483 1.47332C12.065 0.959991 11.5166 0.563324 11.0733 0.831658C6.83829 3.32832 3.79329 8.33332 6.34829 14.89C6.55829 15.4267 5.92829 15.9283 5.47329 15.5783C3.36163 13.98 3.13996 11.6817 3.32663 10.0367C3.39663 9.42999 2.60329 9.13832 2.26496 9.63999C1.47163 10.8533 0.666626 12.8133 0.666626 15.765C1.10996 22.2983 6.62829 24.305 8.61163 24.5617C11.4466 24.9233 14.515 24.3983 16.72 22.38C19.1466 20.1283 20.0333 16.535 18.7266 13.4083ZM7.89996 19.2767C9.57996 18.8683 10.4433 17.655 10.6766 16.5817C11.0616 14.9133 9.55663 13.28 10.5716 10.6433C10.9566 12.825 14.3866 14.19 14.3866 16.57C14.48 19.5217 11.2833 22.0533 7.89996 19.2767Z" fill="#EE5D50"/>
</svg>
